<svg width="74.28" height="8.96" viewBox="0 0 74.28 8.96" xmlns="http://www.w3.org/2000/svg"><g id="svgGroup" stroke-linecap="round" fill-rule="evenodd" font-size="9pt" stroke="#000000" stroke-width="0.25mm" fill="#000000" style="stroke:#000000;stroke-width:0.25mm;fill:#000000"><path d="M 34.04 6.144 L 34.2 6.144 A 1.435 1.435 0 0 0 34.31 6.52 A 1.796 1.796 0 0 0 34.404 6.704 A 1.15 1.15 0 0 0 34.641 6.986 Q 34.751 7.083 34.894 7.167 A 1.996 1.996 0 0 0 34.924 7.184 A 1.434 1.434 0 0 0 35.289 7.324 Q 35.457 7.365 35.655 7.378 A 2.857 2.857 0 0 0 35.84 7.384 Q 36.288 7.384 36.632 7.212 A 1.432 1.432 0 0 0 36.948 7 A 1.195 1.195 0 0 0 37.16 6.752 Q 37.344 6.464 37.344 6.112 A 1.622 1.622 0 0 0 37.319 5.821 Q 37.289 5.656 37.223 5.525 A 0.855 0.855 0 0 0 37.136 5.388 Q 36.928 5.12 36.62 4.992 A 3.929 3.929 0 0 0 36.407 4.911 Q 36.15 4.822 35.792 4.728 Q 35.248 4.584 34.92 4.44 A 1.396 1.396 0 0 1 34.364 3.996 Q 34.136 3.696 34.136 3.184 Q 34.136 2.816 34.34 2.492 A 1.384 1.384 0 0 1 34.777 2.059 A 1.72 1.72 0 0 1 34.924 1.976 A 1.778 1.778 0 0 1 35.498 1.803 A 2.248 2.248 0 0 1 35.792 1.784 A 2.349 2.349 0 0 1 36.2 1.818 Q 36.438 1.86 36.635 1.954 A 1.478 1.478 0 0 1 36.648 1.96 A 1.801 1.801 0 0 1 36.951 2.145 A 1.371 1.371 0 0 1 37.212 2.404 A 1.529 1.529 0 0 1 37.405 2.732 A 1.311 1.311 0 0 1 37.48 2.968 L 37.32 2.968 Q 37.264 2.736 37.088 2.496 A 1.192 1.192 0 0 0 36.842 2.25 A 1.659 1.659 0 0 0 36.584 2.092 Q 36.27 1.935 35.833 1.928 A 2.573 2.573 0 0 0 35.792 1.928 A 1.859 1.859 0 0 0 35.286 1.995 A 1.655 1.655 0 0 0 35.044 2.084 A 1.394 1.394 0 0 0 34.645 2.355 A 1.293 1.293 0 0 0 34.5 2.524 A 1.089 1.089 0 0 0 34.297 3.126 A 1.347 1.347 0 0 0 34.296 3.184 Q 34.296 3.648 34.508 3.924 Q 34.72 4.2 35.032 4.332 Q 35.242 4.421 35.545 4.511 A 9.782 9.782 0 0 0 35.864 4.6 A 10.049 10.049 0 0 1 36.183 4.69 Q 36.504 4.786 36.725 4.881 A 3.01 3.01 0 0 1 36.732 4.884 Q 37.056 5.024 37.28 5.316 A 1.006 1.006 0 0 1 37.446 5.655 Q 37.504 5.856 37.504 6.112 A 1.333 1.333 0 0 1 37.35 6.73 A 1.591 1.591 0 0 1 37.316 6.792 A 1.329 1.329 0 0 1 36.928 7.214 A 1.687 1.687 0 0 1 36.752 7.324 Q 36.387 7.522 35.87 7.528 A 2.781 2.781 0 0 1 35.84 7.528 A 2.523 2.523 0 0 1 35.383 7.489 A 1.852 1.852 0 0 1 34.908 7.336 Q 34.512 7.144 34.296 6.828 Q 34.08 6.512 34.04 6.144 Z M 50.048 3.152 L 50.208 3.152 L 50.208 7.472 L 50.048 7.472 L 50.048 6.296 A 1.753 1.753 0 0 1 49.866 6.771 A 1.405 1.405 0 0 1 49.444 7.232 A 1.783 1.783 0 0 1 48.62 7.537 A 2.293 2.293 0 0 1 48.352 7.552 A 2.002 2.002 0 0 1 47.759 7.468 A 1.615 1.615 0 0 1 47.104 7.08 A 1.479 1.479 0 0 1 46.731 6.468 Q 46.653 6.231 46.628 5.941 A 3.303 3.303 0 0 1 46.616 5.656 L 46.616 3.152 L 46.768 3.152 L 46.768 5.672 A 2.72 2.72 0 0 0 46.809 6.163 Q 46.901 6.659 47.192 6.964 A 1.401 1.401 0 0 0 47.958 7.372 A 2.053 2.053 0 0 0 48.352 7.408 A 1.915 1.915 0 0 0 48.906 7.332 A 1.499 1.499 0 0 0 49.584 6.908 A 1.586 1.586 0 0 0 49.923 6.318 Q 50.003 6.075 50.032 5.78 A 3.582 3.582 0 0 0 50.048 5.432 L 50.048 3.152 Z M 14.864 4.616 L 14.704 4.616 Q 14.6 3.976 14.104 3.608 A 1.842 1.842 0 0 0 13.312 3.276 A 2.5 2.5 0 0 0 12.88 3.24 A 2.061 2.061 0 0 0 12.09 3.391 A 1.981 1.981 0 0 0 11.924 3.468 A 1.681 1.681 0 0 0 11.293 4.048 A 2.056 2.056 0 0 0 11.224 4.16 Q 10.96 4.624 10.96 5.312 Q 10.96 5.908 11.158 6.336 A 1.721 1.721 0 0 0 11.224 6.464 A 1.821 1.821 0 0 0 11.592 6.927 A 1.63 1.63 0 0 0 11.924 7.156 A 2.024 2.024 0 0 0 12.848 7.384 A 2.353 2.353 0 0 0 12.88 7.384 A 2.383 2.383 0 0 0 13.463 7.316 A 1.802 1.802 0 0 0 14.104 7.016 A 1.503 1.503 0 0 0 14.702 6.018 A 1.943 1.943 0 0 0 14.704 6.008 L 14.864 6.008 Q 14.752 6.688 14.228 7.108 Q 13.704 7.528 12.88 7.528 A 2.334 2.334 0 0 1 12.246 7.444 A 2.005 2.005 0 0 1 11.808 7.264 A 1.846 1.846 0 0 1 11.085 6.527 A 2.205 2.205 0 0 1 11.068 6.496 A 2.252 2.252 0 0 1 10.838 5.797 A 3.003 3.003 0 0 1 10.8 5.312 A 2.908 2.908 0 0 1 10.859 4.713 A 2.206 2.206 0 0 1 11.068 4.128 A 1.902 1.902 0 0 1 11.546 3.538 A 1.823 1.823 0 0 1 11.808 3.36 A 2.084 2.084 0 0 1 12.642 3.107 A 2.563 2.563 0 0 1 12.88 3.096 A 2.644 2.644 0 0 1 13.475 3.159 A 1.85 1.85 0 0 1 14.228 3.516 Q 14.752 3.936 14.864 4.616 Z M 6.872 6.368 L 7.032 6.368 A 1.075 1.075 0 0 0 7.147 6.765 A 0.992 0.992 0 0 0 7.46 7.116 Q 7.84 7.384 8.536 7.384 A 1.546 1.546 0 0 0 8.862 7.351 A 1.209 1.209 0 0 0 9.156 7.248 A 1.112 1.112 0 0 0 9.41 7.073 A 0.945 0.945 0 0 0 9.568 6.884 Q 9.712 6.656 9.712 6.392 A 0.825 0.825 0 0 0 9.687 6.183 A 0.606 0.606 0 0 0 9.548 5.924 A 1.059 1.059 0 0 0 9.192 5.67 A 1.246 1.246 0 0 0 9.14 5.648 A 3.617 3.617 0 0 0 8.97 5.586 Q 8.764 5.517 8.472 5.44 Q 8 5.32 7.708 5.2 Q 7.416 5.08 7.212 4.832 Q 7.019 4.597 7.009 4.218 A 1.584 1.584 0 0 1 7.008 4.176 A 0.906 0.906 0 0 1 7.177 3.65 A 1.102 1.102 0 0 1 7.184 3.64 Q 7.36 3.392 7.668 3.244 A 1.506 1.506 0 0 1 8.171 3.105 A 1.855 1.855 0 0 1 8.36 3.096 Q 9.016 3.096 9.416 3.424 A 1.156 1.156 0 0 1 9.826 4.143 A 1.623 1.623 0 0 1 9.848 4.336 L 9.688 4.336 Q 9.664 3.856 9.324 3.548 Q 9.03 3.281 8.522 3.246 A 2.308 2.308 0 0 0 8.36 3.24 A 1.521 1.521 0 0 0 7.988 3.284 A 1.294 1.294 0 0 0 7.752 3.368 A 1.195 1.195 0 0 0 7.496 3.529 A 0.995 0.995 0 0 0 7.324 3.712 A 0.826 0.826 0 0 0 7.197 3.969 A 0.749 0.749 0 0 0 7.168 4.176 A 1.095 1.095 0 0 0 7.194 4.421 A 0.747 0.747 0 0 0 7.352 4.744 Q 7.536 4.96 7.804 5.064 A 4.311 4.311 0 0 0 7.989 5.131 Q 8.205 5.203 8.5 5.283 A 13.861 13.861 0 0 0 8.52 5.288 Q 8.976 5.416 9.236 5.52 Q 9.496 5.624 9.68 5.836 A 0.732 0.732 0 0 1 9.841 6.166 A 1.061 1.061 0 0 1 9.864 6.392 Q 9.864 6.712 9.688 6.972 A 1.184 1.184 0 0 1 9.264 7.351 A 1.42 1.42 0 0 1 9.208 7.38 A 1.477 1.477 0 0 1 8.689 7.521 A 1.799 1.799 0 0 1 8.528 7.528 A 2.888 2.888 0 0 1 8.071 7.494 Q 7.818 7.453 7.611 7.364 A 1.484 1.484 0 0 1 7.38 7.24 A 1.112 1.112 0 0 1 6.903 6.543 A 1.583 1.583 0 0 1 6.872 6.368 Z M 66.048 6.008 L 66.208 6.008 Q 66.096 6.688 65.572 7.108 Q 65.048 7.528 64.224 7.528 A 2.334 2.334 0 0 1 63.59 7.444 A 2.005 2.005 0 0 1 63.152 7.264 A 1.846 1.846 0 0 1 62.429 6.527 A 2.205 2.205 0 0 1 62.412 6.496 A 2.252 2.252 0 0 1 62.182 5.797 A 3.003 3.003 0 0 1 62.144 5.312 A 2.908 2.908 0 0 1 62.203 4.713 A 2.206 2.206 0 0 1 62.412 4.128 A 1.902 1.902 0 0 1 62.89 3.538 A 1.823 1.823 0 0 1 63.152 3.36 A 2.084 2.084 0 0 1 63.986 3.107 A 2.563 2.563 0 0 1 64.224 3.096 A 2.488 2.488 0 0 1 64.742 3.147 A 1.826 1.826 0 0 1 65.304 3.364 A 1.89 1.89 0 0 1 65.768 3.749 A 1.698 1.698 0 0 1 65.98 4.056 Q 66.208 4.48 66.208 4.952 Q 66.208 5.24 66.2 5.384 L 62.304 5.384 Q 62.311 5.986 62.532 6.41 A 1.657 1.657 0 0 0 62.58 6.496 A 1.805 1.805 0 0 0 62.973 6.962 A 1.644 1.644 0 0 0 63.28 7.164 A 2.043 2.043 0 0 0 64.192 7.384 A 2.366 2.366 0 0 0 64.224 7.384 A 2.383 2.383 0 0 0 64.807 7.316 A 1.802 1.802 0 0 0 65.448 7.016 A 1.503 1.503 0 0 0 66.046 6.018 A 1.943 1.943 0 0 0 66.048 6.008 Z M 27.76 4.472 L 27.76 1.552 L 27.912 1.552 L 27.912 7.472 L 27.76 7.472 L 27.76 6.144 Q 27.584 6.752 27.068 7.14 A 1.915 1.915 0 0 1 26.187 7.501 A 2.541 2.541 0 0 1 25.808 7.528 A 2.415 2.415 0 0 1 25.175 7.448 A 2.037 2.037 0 0 1 24.712 7.26 Q 24.232 6.992 23.968 6.492 A 2.228 2.228 0 0 1 23.748 5.835 A 3.003 3.003 0 0 1 23.704 5.312 A 2.953 2.953 0 0 1 23.758 4.733 A 2.204 2.204 0 0 1 23.968 4.132 Q 24.232 3.632 24.712 3.364 A 2.117 2.117 0 0 1 25.527 3.111 A 2.63 2.63 0 0 1 25.808 3.096 A 2.37 2.37 0 0 1 26.425 3.173 A 1.864 1.864 0 0 1 27.068 3.484 Q 27.584 3.872 27.76 4.472 Z M 71.224 4.472 L 71.224 1.552 L 71.376 1.552 L 71.376 7.472 L 71.224 7.472 L 71.224 6.144 Q 71.048 6.752 70.532 7.14 A 1.915 1.915 0 0 1 69.651 7.501 A 2.541 2.541 0 0 1 69.272 7.528 A 2.415 2.415 0 0 1 68.639 7.448 A 2.037 2.037 0 0 1 68.176 7.26 Q 67.696 6.992 67.432 6.492 A 2.228 2.228 0 0 1 67.212 5.835 A 3.003 3.003 0 0 1 67.168 5.312 A 2.953 2.953 0 0 1 67.222 4.733 A 2.204 2.204 0 0 1 67.432 4.132 Q 67.696 3.632 68.176 3.364 A 2.117 2.117 0 0 1 68.991 3.111 A 2.63 2.63 0 0 1 69.272 3.096 A 2.37 2.37 0 0 1 69.889 3.173 A 1.864 1.864 0 0 1 70.532 3.484 Q 71.048 3.872 71.224 4.472 Z M 33 0 L 33.184 0 L 33.184 0.024 A 5.607 5.607 0 0 0 32.026 1.862 A 6.443 6.443 0 0 0 31.972 2.004 A 7.004 7.004 0 0 0 31.562 4.067 A 8.141 8.141 0 0 0 31.552 4.48 A 7.411 7.411 0 0 0 31.769 6.296 A 6.638 6.638 0 0 0 31.972 6.956 Q 32.392 8.104 33.184 8.936 L 33.184 8.96 L 33 8.96 A 5.079 5.079 0 0 1 32.242 7.925 A 6.677 6.677 0 0 1 31.836 7.052 Q 31.392 5.896 31.392 4.48 A 7.818 7.818 0 0 1 31.532 2.969 A 6.397 6.397 0 0 1 31.836 1.908 Q 32.28 0.752 33 0 Z M 72.672 8.96 L 72.488 8.96 L 72.488 8.936 A 5.607 5.607 0 0 0 73.646 7.098 A 6.443 6.443 0 0 0 73.7 6.956 A 7.004 7.004 0 0 0 74.11 4.893 A 8.141 8.141 0 0 0 74.12 4.48 A 7.411 7.411 0 0 0 73.903 2.664 A 6.638 6.638 0 0 0 73.7 2.004 Q 73.28 0.856 72.488 0.024 L 72.488 0 L 72.672 0 A 5.079 5.079 0 0 1 73.43 1.035 A 6.677 6.677 0 0 1 73.836 1.908 Q 74.28 3.064 74.28 4.48 A 7.818 7.818 0 0 1 74.14 5.991 A 6.397 6.397 0 0 1 73.836 7.052 Q 73.392 8.208 72.672 8.96 Z M 42.44 4.472 L 42.44 3.152 L 42.592 3.152 L 42.592 7.472 L 42.44 7.472 L 42.44 6.152 Q 42.264 6.752 41.748 7.14 A 1.915 1.915 0 0 1 40.867 7.501 A 2.541 2.541 0 0 1 40.488 7.528 A 2.415 2.415 0 0 1 39.855 7.448 A 2.037 2.037 0 0 1 39.392 7.26 Q 38.912 6.992 38.648 6.492 A 2.228 2.228 0 0 1 38.428 5.835 A 3.003 3.003 0 0 1 38.384 5.312 A 2.953 2.953 0 0 1 38.438 4.733 A 2.204 2.204 0 0 1 38.648 4.132 Q 38.912 3.632 39.392 3.364 A 2.117 2.117 0 0 1 40.207 3.111 A 2.63 2.63 0 0 1 40.488 3.096 A 2.37 2.37 0 0 1 41.105 3.173 A 1.864 1.864 0 0 1 41.748 3.484 Q 42.264 3.872 42.44 4.472 Z M 58.128 4.472 L 58.128 3.152 L 58.28 3.152 L 58.28 7.472 L 58.128 7.472 L 58.128 6.152 Q 57.952 6.752 57.436 7.14 A 1.915 1.915 0 0 1 56.555 7.501 A 2.541 2.541 0 0 1 56.176 7.528 A 2.415 2.415 0 0 1 55.543 7.448 A 2.037 2.037 0 0 1 55.08 7.26 Q 54.6 6.992 54.336 6.492 A 2.228 2.228 0 0 1 54.116 5.835 A 3.003 3.003 0 0 1 54.072 5.312 A 2.953 2.953 0 0 1 54.126 4.733 A 2.204 2.204 0 0 1 54.336 4.132 Q 54.6 3.632 55.08 3.364 A 2.117 2.117 0 0 1 55.895 3.111 A 2.63 2.63 0 0 1 56.176 3.096 A 2.37 2.37 0 0 1 56.793 3.173 A 1.864 1.864 0 0 1 57.436 3.484 Q 57.952 3.872 58.128 4.472 Z M 1.48 7.472 L 0 7.472 L 0 1.84 L 1.48 1.84 Q 2.936 1.84 3.696 2.576 A 2.399 2.399 0 0 1 4.349 3.731 Q 4.446 4.111 4.455 4.562 A 4.641 4.641 0 0 1 4.456 4.656 A 3.817 3.817 0 0 1 4.37 5.49 Q 4.243 6.058 3.927 6.475 A 2.275 2.275 0 0 1 3.696 6.736 Q 3.045 7.366 1.884 7.457 A 5.198 5.198 0 0 1 1.48 7.472 Z M 45.656 3.312 L 44.296 3.312 L 44.296 6.336 Q 44.296 6.699 44.371 6.904 A 0.714 0.714 0 0 0 44.384 6.936 A 0.584 0.584 0 0 0 44.489 7.104 A 0.51 0.51 0 0 0 44.664 7.228 A 0.831 0.831 0 0 0 44.814 7.276 Q 44.969 7.311 45.186 7.312 A 2.782 2.782 0 0 0 45.2 7.312 L 45.656 7.312 L 45.656 7.472 L 45.184 7.472 Q 44.624 7.472 44.38 7.216 A 0.722 0.722 0 0 1 44.236 6.984 Q 44.136 6.736 44.136 6.336 L 44.136 3.312 L 43.432 3.312 L 43.432 3.152 L 44.136 3.152 L 44.136 2.048 L 44.296 2.048 L 44.296 3.152 L 45.656 3.152 L 45.656 3.312 Z M 61.344 3.312 L 59.984 3.312 L 59.984 6.336 Q 59.984 6.699 60.059 6.904 A 0.714 0.714 0 0 0 60.072 6.936 A 0.584 0.584 0 0 0 60.177 7.104 A 0.51 0.51 0 0 0 60.352 7.228 A 0.831 0.831 0 0 0 60.502 7.276 Q 60.657 7.311 60.874 7.312 A 2.782 2.782 0 0 0 60.888 7.312 L 61.344 7.312 L 61.344 7.472 L 60.872 7.472 Q 60.312 7.472 60.068 7.216 A 0.722 0.722 0 0 1 59.924 6.984 Q 59.824 6.736 59.824 6.336 L 59.824 3.312 L 59.12 3.312 L 59.12 3.152 L 59.824 3.152 L 59.824 2.048 L 59.984 2.048 L 59.984 3.152 L 61.344 3.152 L 61.344 3.312 Z M 1.48 1.984 L 0.16 1.984 L 0.16 7.328 L 1.48 7.328 A 4.389 4.389 0 0 0 2.284 7.259 Q 3.095 7.108 3.584 6.624 A 2.306 2.306 0 0 0 4.196 5.525 Q 4.296 5.13 4.296 4.656 Q 4.296 3.554 3.755 2.878 A 2.196 2.196 0 0 0 3.584 2.688 A 2.258 2.258 0 0 0 2.67 2.15 Q 2.155 1.984 1.48 1.984 Z M 17.249 7.428 A 2.307 2.307 0 0 0 17.936 7.528 A 2.568 2.568 0 0 0 18.121 7.521 A 2.126 2.126 0 0 0 19.016 7.26 Q 19.496 6.992 19.768 6.492 A 2.158 2.158 0 0 0 19.982 5.901 A 2.861 2.861 0 0 0 20.04 5.312 A 2.947 2.947 0 0 0 20.001 4.825 A 2.199 2.199 0 0 0 19.768 4.132 Q 19.496 3.632 19.016 3.364 A 2.049 2.049 0 0 0 18.623 3.196 A 2.307 2.307 0 0 0 17.936 3.096 A 2.568 2.568 0 0 0 17.751 3.103 A 2.126 2.126 0 0 0 16.856 3.364 Q 16.376 3.632 16.1 4.132 A 2.138 2.138 0 0 0 15.883 4.723 A 2.821 2.821 0 0 0 15.824 5.312 A 2.907 2.907 0 0 0 15.863 5.797 A 2.178 2.178 0 0 0 16.1 6.492 Q 16.376 6.992 16.856 7.26 A 2.049 2.049 0 0 0 17.249 7.428 Z M 23.064 3.056 L 23.064 3.232 L 22.992 3.232 A 1.939 1.939 0 0 0 22.382 3.325 A 1.658 1.658 0 0 0 21.836 3.628 A 1.215 1.215 0 0 0 21.468 4.175 Q 21.397 4.378 21.373 4.629 A 2.843 2.843 0 0 0 21.36 4.904 L 21.36 7.472 L 21.2 7.472 L 21.2 3.152 L 21.36 3.152 L 21.36 4.2 A 1.433 1.433 0 0 1 21.677 3.549 Q 22.084 3.09 22.936 3.058 A 3.468 3.468 0 0 1 23.064 3.056 Z M 53.432 3.056 L 53.432 3.232 L 53.36 3.232 A 1.939 1.939 0 0 0 52.75 3.325 A 1.658 1.658 0 0 0 52.204 3.628 A 1.215 1.215 0 0 0 51.836 4.175 Q 51.765 4.378 51.741 4.629 A 2.843 2.843 0 0 0 51.728 4.904 L 51.728 7.472 L 51.568 7.472 L 51.568 3.152 L 51.728 3.152 L 51.728 4.2 A 1.433 1.433 0 0 1 52.045 3.549 Q 52.452 3.09 53.304 3.058 A 3.468 3.468 0 0 1 53.432 3.056 Z M 27.76 5.312 Q 27.76 4.696 27.508 4.228 Q 27.256 3.76 26.812 3.5 Q 26.368 3.24 25.808 3.24 Q 25.216 3.24 24.78 3.488 Q 24.344 3.736 24.104 4.204 A 2.124 2.124 0 0 0 23.905 4.811 A 2.907 2.907 0 0 0 23.864 5.312 A 2.882 2.882 0 0 0 23.91 5.839 A 2.111 2.111 0 0 0 24.104 6.42 Q 24.344 6.888 24.78 7.136 A 1.871 1.871 0 0 0 25.411 7.353 A 2.476 2.476 0 0 0 25.808 7.384 A 2.07 2.07 0 0 0 26.432 7.292 A 1.843 1.843 0 0 0 26.812 7.124 Q 27.256 6.864 27.508 6.396 Q 27.76 5.928 27.76 5.312 Z M 42.44 5.312 Q 42.44 4.696 42.188 4.228 Q 41.936 3.76 41.492 3.5 Q 41.048 3.24 40.488 3.24 Q 39.896 3.24 39.46 3.488 Q 39.024 3.736 38.784 4.204 A 2.124 2.124 0 0 0 38.585 4.811 A 2.907 2.907 0 0 0 38.544 5.312 A 2.882 2.882 0 0 0 38.59 5.839 A 2.111 2.111 0 0 0 38.784 6.42 Q 39.024 6.888 39.46 7.136 A 1.871 1.871 0 0 0 40.091 7.353 A 2.476 2.476 0 0 0 40.488 7.384 A 2.07 2.07 0 0 0 41.112 7.292 A 1.843 1.843 0 0 0 41.492 7.124 Q 41.936 6.864 42.188 6.396 Q 42.44 5.928 42.44 5.312 Z M 58.128 5.312 Q 58.128 4.696 57.876 4.228 Q 57.624 3.76 57.18 3.5 Q 56.736 3.24 56.176 3.24 Q 55.584 3.24 55.148 3.488 Q 54.712 3.736 54.472 4.204 A 2.124 2.124 0 0 0 54.273 4.811 A 2.907 2.907 0 0 0 54.232 5.312 A 2.882 2.882 0 0 0 54.278 5.839 A 2.111 2.111 0 0 0 54.472 6.42 Q 54.712 6.888 55.148 7.136 A 1.871 1.871 0 0 0 55.779 7.353 A 2.476 2.476 0 0 0 56.176 7.384 A 2.07 2.07 0 0 0 56.8 7.292 A 1.843 1.843 0 0 0 57.18 7.124 Q 57.624 6.864 57.876 6.396 Q 58.128 5.928 58.128 5.312 Z M 71.224 5.312 Q 71.224 4.696 70.972 4.228 Q 70.72 3.76 70.276 3.5 Q 69.832 3.24 69.272 3.24 Q 68.68 3.24 68.244 3.488 Q 67.808 3.736 67.568 4.204 A 2.124 2.124 0 0 0 67.369 4.811 A 2.907 2.907 0 0 0 67.328 5.312 A 2.882 2.882 0 0 0 67.374 5.839 A 2.111 2.111 0 0 0 67.568 6.42 Q 67.808 6.888 68.244 7.136 A 1.871 1.871 0 0 0 68.875 7.353 A 2.476 2.476 0 0 0 69.272 7.384 A 2.07 2.07 0 0 0 69.896 7.292 A 1.843 1.843 0 0 0 70.276 7.124 Q 70.72 6.864 70.972 6.396 Q 71.224 5.928 71.224 5.312 Z M 17.936 7.384 Q 18.456 7.384 18.896 7.156 A 1.724 1.724 0 0 0 19.537 6.576 A 2.103 2.103 0 0 0 19.608 6.464 Q 19.88 6 19.88 5.312 A 2.88 2.88 0 0 0 19.837 4.799 Q 19.784 4.507 19.666 4.268 A 1.696 1.696 0 0 0 19.608 4.16 A 1.864 1.864 0 0 0 19.227 3.693 A 1.669 1.669 0 0 0 18.896 3.468 Q 18.456 3.24 17.936 3.24 Q 17.416 3.24 16.972 3.468 A 1.711 1.711 0 0 0 16.327 4.051 A 2.09 2.09 0 0 0 16.256 4.164 A 1.929 1.929 0 0 0 16.04 4.739 Q 15.984 5.004 15.984 5.312 Q 15.984 5.948 16.222 6.398 A 1.731 1.731 0 0 0 16.256 6.46 A 1.852 1.852 0 0 0 16.634 6.926 A 1.659 1.659 0 0 0 16.972 7.156 Q 17.416 7.384 17.936 7.384 Z M 62.304 5.24 L 66.064 5.24 Q 66.084 4.901 66.029 4.618 A 1.638 1.638 0 0 0 65.852 4.128 A 1.653 1.653 0 0 0 65.41 3.613 A 1.595 1.595 0 0 0 65.164 3.46 Q 64.728 3.24 64.224 3.24 A 2.073 2.073 0 0 0 63.417 3.397 A 2 2 0 0 0 63.28 3.46 A 1.694 1.694 0 0 0 62.632 4.046 A 2.054 2.054 0 0 0 62.58 4.128 A 1.848 1.848 0 0 0 62.369 4.665 Q 62.308 4.929 62.304 5.24 Z M 5.616 3.152 L 5.776 3.152 L 5.776 7.472 L 5.616 7.472 L 5.616 3.152 Z M 5.613 2.032 A 0.213 0.213 0 0 0 5.696 2.048 A 0.254 0.254 0 0 0 5.699 2.048 A 0.201 0.201 0 0 0 5.844 1.988 A 0.197 0.197 0 0 0 5.894 1.904 A 0.25 0.25 0 0 0 5.904 1.832 Q 5.904 1.736 5.844 1.676 A 0.202 0.202 0 0 0 5.779 1.632 A 0.213 0.213 0 0 0 5.696 1.616 A 0.254 0.254 0 0 0 5.693 1.616 A 0.201 0.201 0 0 0 5.548 1.676 A 0.197 0.197 0 0 0 5.498 1.76 A 0.25 0.25 0 0 0 5.488 1.832 Q 5.488 1.928 5.548 1.988 A 0.202 0.202 0 0 0 5.613 2.032 Z" vector-effect="non-scaling-stroke"/></g></svg>