<svg width="928.501" height="112" viewBox="0 0 928.501 112" xmlns="http://www.w3.org/2000/svg"><g id="svgGroup" stroke-linecap="round" fill-rule="evenodd" font-size="9pt" stroke="#000000" stroke-width="2mm" fill="#000000" style="stroke:#000000;stroke-width:2mm;fill:#000000"><path d="M 425.5 76.8 L 427.5 76.8 A 17.942 17.942 0 0 0 428.872 81.503 A 22.456 22.456 0 0 0 430.05 83.8 Q 432.013 87.151 436.176 89.586 A 24.948 24.948 0 0 0 436.55 89.8 A 17.93 17.93 0 0 0 441.106 91.552 Q 443.214 92.066 445.682 92.227 A 35.706 35.706 0 0 0 448 92.3 Q 453.6 92.3 457.9 90.15 A 17.897 17.897 0 0 0 461.854 87.502 A 14.933 14.933 0 0 0 464.5 84.4 Q 466.8 80.8 466.8 76.4 Q 466.8 72.044 465.282 69.061 A 10.688 10.688 0 0 0 464.2 67.35 Q 461.6 64 457.75 62.4 Q 453.985 60.835 447.687 59.175 A 155.399 155.399 0 0 0 447.4 59.1 A 119.679 119.679 0 0 1 443.414 57.975 Q 439.319 56.738 436.5 55.5 A 17.453 17.453 0 0 1 429.553 49.954 A 18.872 18.872 0 0 1 429.55 49.95 Q 427.101 46.727 426.756 41.548 A 26.349 26.349 0 0 1 426.7 39.8 Q 426.7 35.2 429.25 31.15 Q 431.8 27.1 436.55 24.7 Q 441.3 22.3 447.4 22.3 Q 453.491 22.3 457.941 24.423 A 18.475 18.475 0 0 1 458.1 24.5 Q 462.6 26.7 465.15 30.05 A 19.107 19.107 0 0 1 467.561 34.152 A 16.391 16.391 0 0 1 468.5 37.1 L 466.5 37.1 Q 465.8 34.2 463.6 31.2 A 14.904 14.904 0 0 0 460.524 28.126 A 20.742 20.742 0 0 0 457.3 26.15 A 18.596 18.596 0 0 0 452.484 24.554 Q 450.13 24.1 447.4 24.1 A 23.234 23.234 0 0 0 441.072 24.94 A 20.689 20.689 0 0 0 438.05 26.05 A 17.42 17.42 0 0 0 433.058 29.44 A 16.165 16.165 0 0 0 431.25 31.55 A 13.611 13.611 0 0 0 428.716 39.072 A 16.846 16.846 0 0 0 428.7 39.8 A 20.59 20.59 0 0 0 429.028 43.588 Q 429.424 45.704 430.3 47.395 A 11.074 11.074 0 0 0 431.35 49.05 Q 434 52.5 437.9 54.15 A 49.099 49.099 0 0 0 440.888 55.29 Q 442.461 55.837 444.314 56.39 A 122.272 122.272 0 0 0 448.3 57.5 A 125.613 125.613 0 0 1 452.281 58.62 Q 456.301 59.827 459.061 61.012 A 37.591 37.591 0 0 1 459.15 61.05 Q 463.2 62.8 466 66.45 A 12.578 12.578 0 0 1 468.078 70.685 Q 468.574 72.415 468.729 74.467 A 25.658 25.658 0 0 1 468.8 76.4 A 16.659 16.659 0 0 1 466.87 84.129 A 19.883 19.883 0 0 1 466.45 84.9 Q 464.1 89 459.4 91.55 Q 454.833 94.028 448.378 94.098 A 34.765 34.765 0 0 1 448 94.1 A 31.542 31.542 0 0 1 442.287 93.607 A 23.149 23.149 0 0 1 436.35 91.7 Q 431.4 89.3 428.7 85.35 Q 426 81.4 425.5 76.8 Z M 625.6 39.4 L 627.6 39.4 L 627.6 93.4 L 625.6 93.4 L 625.6 78.7 A 21.918 21.918 0 0 1 623.324 84.634 A 17.564 17.564 0 0 1 618.05 90.4 A 22.29 22.29 0 0 1 607.753 94.209 A 28.659 28.659 0 0 1 604.4 94.4 A 25.024 25.024 0 0 1 596.99 93.35 A 20.187 20.187 0 0 1 588.8 88.5 A 18.486 18.486 0 0 1 584.143 80.856 Q 582.7 76.487 582.7 70.7 L 582.7 39.4 L 584.6 39.4 L 584.6 70.9 Q 584.6 78.305 587.186 83.245 A 16.664 16.664 0 0 0 589.9 87.05 A 17.515 17.515 0 0 0 599.47 92.149 A 25.657 25.657 0 0 0 604.4 92.6 A 23.934 23.934 0 0 0 611.32 91.646 A 18.741 18.741 0 0 0 619.8 86.35 Q 624.517 81.267 625.398 72.248 A 44.776 44.776 0 0 0 625.6 67.9 L 625.6 39.4 Z M 185.8 57.7 L 183.8 57.7 Q 182.5 49.7 176.3 45.1 A 23.02 23.02 0 0 0 166.404 40.949 A 31.253 31.253 0 0 0 161 40.5 A 25.758 25.758 0 0 0 151.131 42.381 A 24.762 24.762 0 0 0 149.05 43.35 A 21.009 21.009 0 0 0 141.159 50.596 A 25.695 25.695 0 0 0 140.3 52 A 23.946 23.946 0 0 0 137.774 58.726 Q 137.145 61.576 137.027 64.861 A 42.886 42.886 0 0 0 137 66.4 A 37.192 37.192 0 0 0 137.504 72.692 Q 138.117 76.265 139.479 79.204 A 21.514 21.514 0 0 0 140.3 80.8 A 22.76 22.76 0 0 0 144.905 86.584 A 20.371 20.371 0 0 0 149.05 89.45 Q 154.5 92.3 161 92.3 A 29.787 29.787 0 0 0 168.285 91.451 A 22.527 22.527 0 0 0 176.3 87.7 A 18.787 18.787 0 0 0 183.779 75.225 A 24.311 24.311 0 0 0 183.8 75.1 L 185.8 75.1 Q 184.4 83.6 177.85 88.85 A 23.249 23.249 0 0 1 168.058 93.392 A 33.401 33.401 0 0 1 161 94.1 Q 153.5 94.1 147.6 90.8 A 23.078 23.078 0 0 1 138.562 81.591 A 27.559 27.559 0 0 1 138.35 81.2 A 28.147 28.147 0 0 1 135.471 72.466 A 37.534 37.534 0 0 1 135 66.4 A 36.345 36.345 0 0 1 135.735 58.918 A 27.575 27.575 0 0 1 138.35 51.6 A 23.771 23.771 0 0 1 144.322 44.224 A 22.788 22.788 0 0 1 147.6 42 A 26.052 26.052 0 0 1 158.019 38.836 A 32.037 32.037 0 0 1 161 38.7 A 33.056 33.056 0 0 1 168.44 39.493 A 23.129 23.129 0 0 1 177.85 43.95 Q 184.4 49.2 185.8 57.7 Z M 85.9 79.6 L 87.9 79.6 Q 88.5 85.6 93.25 88.95 A 16.226 16.226 0 0 0 97.911 91.165 Q 101.636 92.3 106.7 92.3 A 19.328 19.328 0 0 0 110.777 91.888 A 15.112 15.112 0 0 0 114.45 90.6 Q 117.8 88.9 119.6 86.05 Q 121.4 83.2 121.4 79.9 A 10.314 10.314 0 0 0 121.087 77.293 A 7.57 7.57 0 0 0 119.35 74.05 A 13.24 13.24 0 0 0 114.905 70.875 A 15.575 15.575 0 0 0 114.25 70.6 Q 111.339 69.455 106.379 68.127 A 153.262 153.262 0 0 0 105.9 68 A 110.428 110.428 0 0 1 102.11 66.969 Q 100.427 66.477 98.988 65.984 A 46.72 46.72 0 0 1 96.35 65 Q 92.7 63.5 90.15 60.4 Q 87.732 57.46 87.607 52.723 A 19.79 19.79 0 0 1 87.6 52.2 A 11.319 11.319 0 0 1 89.715 45.621 A 13.779 13.779 0 0 1 89.8 45.5 Q 92 42.4 95.85 40.55 A 18.827 18.827 0 0 1 102.142 38.817 A 23.189 23.189 0 0 1 104.5 38.7 A 26.673 26.673 0 0 1 110.09 39.253 Q 114.536 40.205 117.7 42.8 A 14.454 14.454 0 0 1 122.827 51.785 A 20.287 20.287 0 0 1 123.1 54.2 L 121.1 54.2 Q 120.8 48.2 116.55 44.35 A 13.896 13.896 0 0 0 111.128 41.374 Q 109.036 40.746 106.527 40.569 A 28.853 28.853 0 0 0 104.5 40.5 A 19.014 19.014 0 0 0 99.853 41.049 A 16.171 16.171 0 0 0 96.9 42.1 A 14.935 14.935 0 0 0 93.697 44.11 A 12.432 12.432 0 0 0 91.55 46.4 A 10.32 10.32 0 0 0 89.96 49.61 A 9.369 9.369 0 0 0 89.6 52.2 A 13.692 13.692 0 0 0 89.923 55.257 A 9.335 9.335 0 0 0 91.9 59.3 Q 94.2 62 97.55 63.3 A 53.891 53.891 0 0 0 99.863 64.132 Q 102.56 65.039 106.253 66.034 A 170.488 170.488 0 0 0 106.5 66.1 A 153.645 153.645 0 0 1 109.823 67.071 Q 112.739 67.961 114.799 68.746 A 42.772 42.772 0 0 1 115.45 69 Q 118.7 70.3 121 72.95 A 9.144 9.144 0 0 1 123.016 77.08 A 13.264 13.264 0 0 1 123.3 79.9 Q 123.3 83.9 121.1 87.15 A 14.805 14.805 0 0 1 115.806 91.887 A 17.749 17.749 0 0 1 115.1 92.25 A 18.46 18.46 0 0 1 108.615 94.011 A 22.485 22.485 0 0 1 106.6 94.1 Q 99.89 94.1 95.141 92.054 A 18.549 18.549 0 0 1 92.25 90.5 A 13.897 13.897 0 0 1 86.292 81.791 A 19.785 19.785 0 0 1 85.9 79.6 Z M 825.6 75.1 L 827.6 75.1 Q 826.2 83.6 819.65 88.85 A 23.249 23.249 0 0 1 809.858 93.392 A 33.401 33.401 0 0 1 802.8 94.1 Q 795.3 94.1 789.4 90.8 A 23.078 23.078 0 0 1 780.362 81.591 A 27.559 27.559 0 0 1 780.15 81.2 A 28.147 28.147 0 0 1 777.271 72.466 A 37.534 37.534 0 0 1 776.8 66.4 A 36.345 36.345 0 0 1 777.535 58.918 A 27.575 27.575 0 0 1 780.15 51.6 A 23.771 23.771 0 0 1 786.122 44.224 A 22.788 22.788 0 0 1 789.4 42 A 26.052 26.052 0 0 1 799.819 38.836 A 32.037 32.037 0 0 1 802.8 38.7 A 31.096 31.096 0 0 1 809.272 39.341 A 22.824 22.824 0 0 1 816.3 42.05 A 23.626 23.626 0 0 1 822.104 46.857 A 21.228 21.228 0 0 1 824.75 50.7 Q 827.6 56 827.6 61.9 A 213.336 213.336 0 0 1 827.594 63.587 Q 827.575 65.95 827.5 67.3 L 778.8 67.3 A 34.786 34.786 0 0 0 779.407 73.542 Q 780.248 77.853 782.25 81.2 A 22.559 22.559 0 0 0 787.166 87.027 A 20.554 20.554 0 0 0 791 89.55 A 25.536 25.536 0 0 0 802.401 92.297 A 29.573 29.573 0 0 0 802.8 92.3 A 29.787 29.787 0 0 0 810.085 91.451 A 22.527 22.527 0 0 0 818.1 87.7 A 18.787 18.787 0 0 0 825.579 75.225 A 24.311 24.311 0 0 0 825.6 75.1 Z M 347 55.9 L 347 19.4 L 348.9 19.4 L 348.9 93.4 L 347 93.4 L 347 76.8 Q 344.8 84.4 338.35 89.25 A 23.936 23.936 0 0 1 327.34 93.758 A 31.766 31.766 0 0 1 322.6 94.1 A 30.19 30.19 0 0 1 314.687 93.098 A 25.465 25.465 0 0 1 308.9 90.75 Q 302.9 87.4 299.6 81.15 A 27.856 27.856 0 0 1 296.845 72.935 A 37.534 37.534 0 0 1 296.3 66.4 A 36.914 36.914 0 0 1 296.978 59.159 A 27.552 27.552 0 0 1 299.6 51.65 Q 302.9 45.4 308.9 42.05 Q 314.9 38.7 322.6 38.7 A 29.631 29.631 0 0 1 330.318 39.662 A 23.295 23.295 0 0 1 338.35 43.55 Q 344.8 48.4 347 55.9 Z M 890.3 55.9 L 890.3 19.4 L 892.2 19.4 L 892.2 93.4 L 890.3 93.4 L 890.3 76.8 Q 888.1 84.4 881.65 89.25 A 23.936 23.936 0 0 1 870.64 93.758 A 31.766 31.766 0 0 1 865.9 94.1 A 30.19 30.19 0 0 1 857.987 93.098 A 25.465 25.465 0 0 1 852.2 90.75 Q 846.2 87.4 842.9 81.15 A 27.856 27.856 0 0 1 840.145 72.935 A 37.534 37.534 0 0 1 839.6 66.4 A 36.914 36.914 0 0 1 840.278 59.159 A 27.552 27.552 0 0 1 842.9 51.65 Q 846.2 45.4 852.2 42.05 Q 858.2 38.7 865.9 38.7 A 29.631 29.631 0 0 1 873.618 39.662 A 23.295 23.295 0 0 1 881.65 43.55 Q 888.1 48.4 890.3 55.9 Z M 412.5 0 L 414.8 0 L 414.8 0.3 A 70.09 70.09 0 0 0 400.324 23.272 A 80.547 80.547 0 0 0 399.65 25.05 Q 394.4 39.4 394.4 56 A 92.636 92.636 0 0 0 397.112 78.7 A 82.971 82.971 0 0 0 399.65 86.95 Q 404.9 101.3 414.8 111.7 L 414.8 112 L 412.5 112 A 63.488 63.488 0 0 1 403.029 99.057 A 83.459 83.459 0 0 1 397.95 88.15 A 83.404 83.404 0 0 1 392.969 67.006 A 103.696 103.696 0 0 1 392.4 56 A 97.726 97.726 0 0 1 394.156 37.116 A 79.968 79.968 0 0 1 397.95 23.85 A 81.184 81.184 0 0 1 404.306 10.756 A 62.186 62.186 0 0 1 412.5 0 Z M 908.4 112 L 906.1 112 L 906.1 111.7 A 70.09 70.09 0 0 0 920.576 88.728 A 80.547 80.547 0 0 0 921.25 86.95 Q 926.5 72.6 926.5 56 A 92.636 92.636 0 0 0 923.788 33.3 A 82.971 82.971 0 0 0 921.25 25.05 Q 916 10.7 906.1 0.3 L 906.1 0 L 908.4 0 A 63.488 63.488 0 0 1 917.871 12.943 A 83.459 83.459 0 0 1 922.95 23.85 A 83.404 83.404 0 0 1 927.931 44.994 A 103.696 103.696 0 0 1 928.5 56 A 97.726 97.726 0 0 1 926.744 74.884 A 79.968 79.968 0 0 1 922.95 88.15 A 81.184 81.184 0 0 1 916.594 101.244 A 62.186 62.186 0 0 1 908.4 112 Z M 530.5 55.9 L 530.5 39.4 L 532.4 39.4 L 532.4 93.4 L 530.5 93.4 L 530.5 76.9 Q 528.3 84.4 521.85 89.25 A 23.936 23.936 0 0 1 510.84 93.758 A 31.766 31.766 0 0 1 506.1 94.1 A 30.19 30.19 0 0 1 498.187 93.098 A 25.465 25.465 0 0 1 492.4 90.75 Q 486.4 87.4 483.1 81.15 A 27.856 27.856 0 0 1 480.345 72.935 A 37.534 37.534 0 0 1 479.8 66.4 A 36.914 36.914 0 0 1 480.478 59.159 A 27.552 27.552 0 0 1 483.1 51.65 Q 486.4 45.4 492.4 42.05 Q 498.4 38.7 506.1 38.7 A 29.631 29.631 0 0 1 513.818 39.662 A 23.295 23.295 0 0 1 521.85 43.55 Q 528.3 48.4 530.5 55.9 Z M 726.6 55.9 L 726.6 39.4 L 728.5 39.4 L 728.5 93.4 L 726.6 93.4 L 726.6 76.9 Q 724.4 84.4 717.95 89.25 A 23.936 23.936 0 0 1 706.94 93.758 A 31.766 31.766 0 0 1 702.2 94.1 A 30.19 30.19 0 0 1 694.287 93.098 A 25.465 25.465 0 0 1 688.5 90.75 Q 682.5 87.4 679.2 81.15 A 27.856 27.856 0 0 1 676.445 72.935 A 37.534 37.534 0 0 1 675.9 66.4 A 36.914 36.914 0 0 1 676.578 59.159 A 27.552 27.552 0 0 1 679.2 51.65 Q 682.5 45.4 688.5 42.05 Q 694.5 38.7 702.2 38.7 A 29.631 29.631 0 0 1 709.918 39.662 A 23.295 23.295 0 0 1 717.95 43.55 Q 724.4 48.4 726.6 55.9 Z M 18.5 93.4 L 0 93.4 L 0 23 L 18.5 23 A 57.718 57.718 0 0 1 29.025 23.898 Q 35.012 25.01 39.698 27.498 A 28.486 28.486 0 0 1 46.2 32.2 Q 55.365 41.076 55.688 57.025 A 58.019 58.019 0 0 1 55.7 58.2 A 47.707 47.707 0 0 1 54.628 68.63 Q 53.038 75.725 49.092 80.936 A 28.441 28.441 0 0 1 46.2 84.2 A 30.327 30.327 0 0 1 34.09 91.242 Q 27.316 93.4 18.5 93.4 Z M 570.7 41.4 L 553.7 41.4 L 553.7 79.2 A 35.184 35.184 0 0 0 553.797 81.907 Q 554.002 84.559 554.643 86.302 A 8.925 8.925 0 0 0 554.8 86.7 A 7.294 7.294 0 0 0 556.117 88.797 A 6.377 6.377 0 0 0 558.3 90.35 Q 560.65 91.378 564.822 91.4 A 34.728 34.728 0 0 0 565 91.4 L 570.7 91.4 L 570.7 93.4 L 564.8 93.4 Q 560.724 93.4 557.988 92.315 A 8.95 8.95 0 0 1 554.75 90.2 Q 551.967 87.28 551.723 80.531 A 36.897 36.897 0 0 1 551.7 79.2 L 551.7 41.4 L 542.9 41.4 L 542.9 39.4 L 551.7 39.4 L 551.7 25.6 L 553.7 25.6 L 553.7 39.4 L 570.7 39.4 L 570.7 41.4 Z M 766.8 41.4 L 749.8 41.4 L 749.8 79.2 A 35.184 35.184 0 0 0 749.897 81.907 Q 750.102 84.559 750.743 86.302 A 8.925 8.925 0 0 0 750.9 86.7 A 7.294 7.294 0 0 0 752.217 88.797 A 6.377 6.377 0 0 0 754.4 90.35 Q 756.75 91.378 760.922 91.4 A 34.728 34.728 0 0 0 761.1 91.4 L 766.8 91.4 L 766.8 93.4 L 760.9 93.4 Q 756.824 93.4 754.088 92.315 A 8.95 8.95 0 0 1 750.85 90.2 Q 748.067 87.28 747.823 80.531 A 36.897 36.897 0 0 1 747.8 79.2 L 747.8 41.4 L 739 41.4 L 739 39.4 L 747.8 39.4 L 747.8 25.6 L 749.8 25.6 L 749.8 39.4 L 766.8 39.4 L 766.8 41.4 Z M 18.5 24.8 L 2 24.8 L 2 91.6 L 18.5 91.6 Q 35.9 91.6 44.8 82.8 A 28.823 28.823 0 0 0 52.448 69.066 Q 53.612 64.472 53.694 59.028 A 55.126 55.126 0 0 0 53.7 58.2 Q 53.7 44.425 46.935 35.971 A 27.448 27.448 0 0 0 44.8 33.6 A 28.222 28.222 0 0 0 33.375 26.869 Q 28.949 25.447 23.578 25.002 A 61.6 61.6 0 0 0 18.5 24.8 Z M 215.616 92.856 A 28.841 28.841 0 0 0 224.2 94.1 A 32.101 32.101 0 0 0 226.507 94.018 A 26.579 26.579 0 0 0 237.7 90.75 Q 243.7 87.4 247.1 81.15 A 26.973 26.973 0 0 0 249.778 73.758 A 35.766 35.766 0 0 0 250.5 66.4 A 36.84 36.84 0 0 0 250.017 60.312 A 27.483 27.483 0 0 0 247.1 51.65 Q 243.7 45.4 237.7 42.05 A 25.611 25.611 0 0 0 232.784 39.944 A 28.841 28.841 0 0 0 224.2 38.7 A 32.101 32.101 0 0 0 221.893 38.782 A 26.579 26.579 0 0 0 210.7 42.05 Q 204.7 45.4 201.25 51.65 Q 197.8 57.9 197.8 66.4 A 36.343 36.343 0 0 0 198.285 72.459 A 27.225 27.225 0 0 0 201.25 81.15 Q 204.7 87.4 210.7 90.75 A 25.611 25.611 0 0 0 215.616 92.856 Z M 288.3 38.2 L 288.3 40.4 L 287.4 40.4 A 24.237 24.237 0 0 0 279.778 41.557 A 20.724 20.724 0 0 0 272.95 45.35 A 15.185 15.185 0 0 0 268.351 52.19 Q 267.465 54.728 267.16 57.858 A 35.537 35.537 0 0 0 267 61.3 L 267 93.4 L 265 93.4 L 265 39.4 L 267 39.4 L 267 52.5 A 17.909 17.909 0 0 1 270.961 44.358 Q 276.422 38.2 288.3 38.2 Z M 667.9 38.2 L 667.9 40.4 L 667 40.4 A 24.237 24.237 0 0 0 659.378 41.557 A 20.724 20.724 0 0 0 652.55 45.35 A 15.185 15.185 0 0 0 647.951 52.19 Q 647.065 54.728 646.76 57.858 A 35.537 35.537 0 0 0 646.6 61.3 L 646.6 93.4 L 644.6 93.4 L 644.6 39.4 L 646.6 39.4 L 646.6 52.5 A 17.909 17.909 0 0 1 650.561 44.358 Q 656.022 38.2 667.9 38.2 Z M 347 66.4 Q 347 58.7 343.85 52.85 Q 340.7 47 335.15 43.75 A 23.884 23.884 0 0 0 324.434 40.557 A 28.975 28.975 0 0 0 322.6 40.5 A 29.728 29.728 0 0 0 316.091 41.181 A 22.842 22.842 0 0 0 309.75 43.6 Q 304.3 46.7 301.3 52.55 A 26.55 26.55 0 0 0 298.814 60.144 A 36.342 36.342 0 0 0 298.3 66.4 A 36.031 36.031 0 0 0 298.874 72.988 A 26.391 26.391 0 0 0 301.3 80.25 Q 304.3 86.1 309.75 89.2 A 23.386 23.386 0 0 0 317.638 91.917 A 30.954 30.954 0 0 0 322.6 92.3 Q 329.6 92.3 335.15 89.05 Q 340.7 85.8 343.85 79.95 A 26.172 26.172 0 0 0 346.677 71.143 A 33.729 33.729 0 0 0 347 66.4 Z M 530.5 66.4 Q 530.5 58.7 527.35 52.85 Q 524.2 47 518.65 43.75 A 23.884 23.884 0 0 0 507.934 40.557 A 28.975 28.975 0 0 0 506.1 40.5 A 29.728 29.728 0 0 0 499.591 41.181 A 22.842 22.842 0 0 0 493.25 43.6 Q 487.8 46.7 484.8 52.55 A 26.55 26.55 0 0 0 482.314 60.144 A 36.342 36.342 0 0 0 481.8 66.4 A 36.031 36.031 0 0 0 482.374 72.988 A 26.391 26.391 0 0 0 484.8 80.25 Q 487.8 86.1 493.25 89.2 A 23.386 23.386 0 0 0 501.138 91.917 A 30.954 30.954 0 0 0 506.1 92.3 Q 513.1 92.3 518.65 89.05 Q 524.2 85.8 527.35 79.95 A 26.172 26.172 0 0 0 530.177 71.143 A 33.729 33.729 0 0 0 530.5 66.4 Z M 726.6 66.4 Q 726.6 58.7 723.45 52.85 Q 720.3 47 714.75 43.75 A 23.884 23.884 0 0 0 704.034 40.557 A 28.975 28.975 0 0 0 702.2 40.5 A 29.728 29.728 0 0 0 695.691 41.181 A 22.842 22.842 0 0 0 689.35 43.6 Q 683.9 46.7 680.9 52.55 A 26.55 26.55 0 0 0 678.414 60.144 A 36.342 36.342 0 0 0 677.9 66.4 A 36.031 36.031 0 0 0 678.474 72.988 A 26.391 26.391 0 0 0 680.9 80.25 Q 683.9 86.1 689.35 89.2 A 23.386 23.386 0 0 0 697.238 91.917 A 30.954 30.954 0 0 0 702.2 92.3 Q 709.2 92.3 714.75 89.05 Q 720.3 85.8 723.45 79.95 A 26.172 26.172 0 0 0 726.277 71.143 A 33.729 33.729 0 0 0 726.6 66.4 Z M 890.3 66.4 Q 890.3 58.7 887.15 52.85 Q 884 47 878.45 43.75 A 23.884 23.884 0 0 0 867.734 40.557 A 28.975 28.975 0 0 0 865.9 40.5 A 29.728 29.728 0 0 0 859.391 41.181 A 22.842 22.842 0 0 0 853.05 43.6 Q 847.6 46.7 844.6 52.55 A 26.55 26.55 0 0 0 842.114 60.144 A 36.342 36.342 0 0 0 841.6 66.4 A 36.031 36.031 0 0 0 842.174 72.988 A 26.391 26.391 0 0 0 844.6 80.25 Q 847.6 86.1 853.05 89.2 A 23.386 23.386 0 0 0 860.938 91.917 A 30.954 30.954 0 0 0 865.9 92.3 Q 872.9 92.3 878.45 89.05 Q 884 85.8 887.15 79.95 A 26.172 26.172 0 0 0 889.977 71.143 A 33.729 33.729 0 0 0 890.3 66.4 Z M 224.2 92.3 Q 230.7 92.3 236.2 89.45 A 21.544 21.544 0 0 0 244.217 82.204 A 26.292 26.292 0 0 0 245.1 80.8 A 23.631 23.631 0 0 0 247.753 73.847 Q 248.401 70.885 248.487 67.46 A 42.207 42.207 0 0 0 248.5 66.4 A 35.994 35.994 0 0 0 247.96 59.991 Q 247.145 55.489 245.1 52 A 23.306 23.306 0 0 0 240.34 46.168 A 20.867 20.867 0 0 0 236.2 43.35 Q 230.7 40.5 224.2 40.5 Q 217.7 40.5 212.15 43.35 A 21.382 21.382 0 0 0 204.084 50.634 A 26.12 26.12 0 0 0 203.2 52.05 A 24.115 24.115 0 0 0 200.498 59.241 Q 199.8 62.548 199.8 66.4 Q 199.8 74.9 203.2 80.75 A 23.152 23.152 0 0 0 207.923 86.576 A 20.735 20.735 0 0 0 212.15 89.45 Q 217.7 92.3 224.2 92.3 Z M 778.8 65.5 L 825.8 65.5 A 36.992 36.992 0 0 0 825.868 63.285 Q 825.87 56.436 823.15 51.6 A 20.663 20.663 0 0 0 817.62 45.162 A 19.933 19.933 0 0 0 814.55 43.25 Q 809.1 40.5 802.8 40.5 A 25.913 25.913 0 0 0 792.712 42.458 A 25.002 25.002 0 0 0 791 43.25 A 21.176 21.176 0 0 0 782.896 50.575 A 25.668 25.668 0 0 0 782.25 51.6 A 23.096 23.096 0 0 0 779.608 58.312 Q 778.942 61.197 778.823 64.537 A 40.82 40.82 0 0 0 778.8 65.5 Z M 70.2 39.4 L 72.2 39.4 L 72.2 93.4 L 70.2 93.4 L 70.2 39.4 Z M 70.159 25.401 A 2.659 2.659 0 0 0 71.2 25.6 A 3.201 3.201 0 0 0 71.234 25.6 A 2.508 2.508 0 0 0 73.05 24.85 A 2.46 2.46 0 0 0 73.676 23.801 A 3.127 3.127 0 0 0 73.8 22.9 A 3.471 3.471 0 0 0 73.774 22.466 A 2.525 2.525 0 0 0 73.05 20.95 A 2.52 2.52 0 0 0 72.241 20.399 A 2.659 2.659 0 0 0 71.2 20.2 A 3.201 3.201 0 0 0 71.166 20.2 A 2.508 2.508 0 0 0 69.35 20.95 A 2.46 2.46 0 0 0 68.724 21.999 A 3.127 3.127 0 0 0 68.6 22.9 A 3.471 3.471 0 0 0 68.626 23.334 A 2.525 2.525 0 0 0 69.35 24.85 A 2.52 2.52 0 0 0 70.159 25.401 Z" vector-effect="non-scaling-stroke"/></g></svg>