<svg width="148.56" height="17.92" viewBox="0 0 148.56 17.92" xmlns="http://www.w3.org/2000/svg"><g id="svgGroup" stroke-linecap="round" fill-rule="evenodd" font-size="9pt" stroke="#ffffff" stroke-width="0.25mm" fill="#ffffff" style="stroke:#ffffff;stroke-width:0.25mm;fill:#ffffff"><path d="M 68.08 12.288 L 68.4 12.288 A 2.871 2.871 0 0 0 68.619 13.041 A 3.593 3.593 0 0 0 68.808 13.408 A 2.3 2.3 0 0 0 69.282 13.973 Q 69.503 14.167 69.788 14.334 A 3.992 3.992 0 0 0 69.848 14.368 A 2.869 2.869 0 0 0 70.577 14.648 Q 70.914 14.731 71.309 14.756 A 5.713 5.713 0 0 0 71.68 14.768 Q 72.576 14.768 73.264 14.424 Q 73.952 14.08 74.32 13.504 Q 74.688 12.928 74.688 12.224 A 3.245 3.245 0 0 0 74.639 11.641 Q 74.579 11.312 74.445 11.05 A 1.71 1.71 0 0 0 74.272 10.776 Q 73.856 10.24 73.24 9.984 A 7.857 7.857 0 0 0 72.814 9.822 Q 72.316 9.649 71.63 9.468 A 24.894 24.894 0 0 0 71.584 9.456 A 19.149 19.149 0 0 1 70.946 9.276 Q 70.619 9.177 70.342 9.078 A 7.763 7.763 0 0 1 69.84 8.88 Q 69.184 8.592 68.728 7.992 Q 68.272 7.392 68.272 6.368 Q 68.272 5.632 68.68 4.984 Q 69.088 4.336 69.848 3.952 Q 70.608 3.568 71.584 3.568 A 4.697 4.697 0 0 1 72.4 3.635 Q 72.876 3.719 73.271 3.908 A 2.957 2.957 0 0 1 73.296 3.92 A 3.601 3.601 0 0 1 73.902 4.29 A 2.741 2.741 0 0 1 74.424 4.808 A 3.057 3.057 0 0 1 74.81 5.464 A 2.623 2.623 0 0 1 74.96 5.936 L 74.64 5.936 A 2.29 2.29 0 0 0 74.453 5.438 Q 74.341 5.217 74.176 4.992 A 2.385 2.385 0 0 0 73.684 4.5 A 3.319 3.319 0 0 0 73.168 4.184 A 2.975 2.975 0 0 0 72.397 3.929 Q 72.056 3.863 71.665 3.857 A 5.15 5.15 0 0 0 71.584 3.856 Q 70.768 3.856 70.088 4.168 A 2.787 2.787 0 0 0 69.289 4.71 A 2.586 2.586 0 0 0 69 5.048 A 2.178 2.178 0 0 0 68.594 6.251 A 2.695 2.695 0 0 0 68.592 6.368 Q 68.592 7.296 69.016 7.848 Q 69.44 8.4 70.064 8.664 A 7.856 7.856 0 0 0 70.542 8.846 Q 70.794 8.934 71.09 9.022 A 19.563 19.563 0 0 0 71.728 9.2 A 20.098 20.098 0 0 1 72.365 9.379 Q 73.019 9.576 73.464 9.768 Q 74.112 10.048 74.56 10.632 Q 74.937 11.123 74.997 11.915 A 4.105 4.105 0 0 1 75.008 12.224 A 2.665 2.665 0 0 1 74.699 13.461 A 3.181 3.181 0 0 1 74.632 13.584 Q 74.256 14.24 73.504 14.648 A 3.243 3.243 0 0 1 72.586 14.972 Q 72.192 15.051 71.74 15.056 A 5.563 5.563 0 0 1 71.68 15.056 Q 70.608 15.056 69.816 14.672 Q 69.024 14.288 68.592 13.656 Q 68.16 13.024 68.08 12.288 Z M 100.096 6.304 L 100.416 6.304 L 100.416 14.944 L 100.096 14.944 L 100.096 12.592 Q 99.808 13.824 98.888 14.464 Q 97.968 15.104 96.704 15.104 A 4.004 4.004 0 0 1 95.518 14.936 A 3.23 3.23 0 0 1 94.208 14.16 Q 93.384 13.363 93.256 11.882 A 6.605 6.605 0 0 1 93.232 11.312 L 93.232 6.304 L 93.536 6.304 L 93.536 11.344 Q 93.536 13.04 94.384 13.928 A 2.802 2.802 0 0 0 95.915 14.744 A 4.105 4.105 0 0 0 96.704 14.816 A 3.829 3.829 0 0 0 97.811 14.663 A 2.999 2.999 0 0 0 99.168 13.816 A 3.173 3.173 0 0 0 99.846 12.635 Q 100.006 12.15 100.064 11.56 A 7.164 7.164 0 0 0 100.096 10.864 L 100.096 6.304 Z M 29.728 9.232 L 29.408 9.232 Q 29.2 7.952 28.208 7.216 Q 27.216 6.48 25.76 6.48 A 4.121 4.121 0 0 0 24.181 6.781 A 3.962 3.962 0 0 0 23.848 6.936 Q 22.976 7.392 22.448 8.32 A 3.831 3.831 0 0 0 22.044 9.396 Q 21.943 9.852 21.924 10.378 A 6.862 6.862 0 0 0 21.92 10.624 Q 21.92 11.817 22.317 12.673 A 3.442 3.442 0 0 0 22.448 12.928 A 3.642 3.642 0 0 0 23.185 13.853 A 3.259 3.259 0 0 0 23.848 14.312 A 4.049 4.049 0 0 0 25.695 14.768 A 4.71 4.71 0 0 0 25.76 14.768 A 4.766 4.766 0 0 0 26.926 14.632 A 3.604 3.604 0 0 0 28.208 14.032 A 3.006 3.006 0 0 0 29.405 12.036 A 3.91 3.91 0 0 0 29.408 12.016 L 29.728 12.016 Q 29.504 13.376 28.456 14.216 Q 27.408 15.056 25.76 15.056 A 4.668 4.668 0 0 1 24.491 14.889 A 4.01 4.01 0 0 1 23.616 14.528 Q 22.672 14 22.136 12.992 Q 21.6 11.984 21.6 10.624 A 5.815 5.815 0 0 1 21.718 9.427 A 4.412 4.412 0 0 1 22.136 8.256 A 3.803 3.803 0 0 1 23.091 7.076 A 3.646 3.646 0 0 1 23.616 6.72 A 4.168 4.168 0 0 1 25.283 6.214 A 5.126 5.126 0 0 1 25.76 6.192 A 5.289 5.289 0 0 1 26.95 6.319 A 3.701 3.701 0 0 1 28.456 7.032 Q 29.504 7.872 29.728 9.232 Z M 13.744 12.736 L 14.064 12.736 A 2.151 2.151 0 0 0 14.294 13.531 A 1.983 1.983 0 0 0 14.92 14.232 A 2.596 2.596 0 0 0 15.666 14.586 Q 16.001 14.689 16.404 14.733 A 6.071 6.071 0 0 0 17.072 14.768 A 3.092 3.092 0 0 0 17.724 14.702 A 2.418 2.418 0 0 0 18.312 14.496 Q 18.848 14.224 19.136 13.768 Q 19.424 13.312 19.424 12.784 A 1.65 1.65 0 0 0 19.374 12.367 A 1.211 1.211 0 0 0 19.096 11.848 A 2.118 2.118 0 0 0 18.385 11.34 A 2.492 2.492 0 0 0 18.28 11.296 A 7.234 7.234 0 0 0 17.94 11.173 Q 17.527 11.034 16.944 10.88 Q 16 10.64 15.416 10.4 Q 14.832 10.16 14.424 9.664 A 1.721 1.721 0 0 1 14.086 8.973 Q 14.016 8.69 14.016 8.352 A 1.811 1.811 0 0 1 14.354 7.299 A 2.204 2.204 0 0 1 14.368 7.28 Q 14.72 6.784 15.336 6.488 Q 15.952 6.192 16.72 6.192 A 4.268 4.268 0 0 1 17.614 6.28 Q 18.192 6.404 18.635 6.702 A 2.575 2.575 0 0 1 18.832 6.848 Q 19.632 7.504 19.696 8.672 L 19.376 8.672 Q 19.328 7.712 18.648 7.096 A 2.223 2.223 0 0 0 17.781 6.62 Q 17.315 6.48 16.72 6.48 Q 16.048 6.48 15.504 6.736 A 2.39 2.39 0 0 0 14.991 7.058 A 1.989 1.989 0 0 0 14.648 7.424 A 1.651 1.651 0 0 0 14.394 7.938 A 1.499 1.499 0 0 0 14.336 8.352 A 2.191 2.191 0 0 0 14.388 8.841 A 1.494 1.494 0 0 0 14.704 9.488 Q 15.072 9.92 15.608 10.128 A 8.623 8.623 0 0 0 15.978 10.261 Q 16.424 10.411 17.04 10.576 A 24.584 24.584 0 0 1 17.572 10.731 Q 18.038 10.874 18.368 10.999 A 6.842 6.842 0 0 1 18.472 11.04 Q 18.992 11.248 19.36 11.672 Q 19.728 12.096 19.728 12.784 Q 19.728 13.424 19.376 13.944 Q 19.024 14.464 18.416 14.76 A 2.954 2.954 0 0 1 17.378 15.042 A 3.598 3.598 0 0 1 17.056 15.056 A 5.776 5.776 0 0 1 16.142 14.988 Q 15.332 14.858 14.76 14.48 A 2.223 2.223 0 0 1 13.807 13.087 A 3.166 3.166 0 0 1 13.744 12.736 Z M 132.096 12.016 L 132.416 12.016 Q 132.192 13.376 131.144 14.216 Q 130.096 15.056 128.448 15.056 A 4.668 4.668 0 0 1 127.179 14.889 A 4.01 4.01 0 0 1 126.304 14.528 Q 125.36 14 124.824 12.992 Q 124.288 11.984 124.288 10.624 A 5.815 5.815 0 0 1 124.406 9.427 A 4.412 4.412 0 0 1 124.824 8.256 A 3.803 3.803 0 0 1 125.779 7.076 A 3.646 3.646 0 0 1 126.304 6.72 A 4.168 4.168 0 0 1 127.971 6.214 A 5.126 5.126 0 0 1 128.448 6.192 A 4.975 4.975 0 0 1 129.484 6.295 A 3.652 3.652 0 0 1 130.608 6.728 A 3.78 3.78 0 0 1 131.537 7.497 A 3.396 3.396 0 0 1 131.96 8.112 Q 132.416 8.96 132.416 9.904 Q 132.416 10.345 132.407 10.617 A 7.23 7.23 0 0 1 132.4 10.768 L 124.608 10.768 Q 124.624 12.096 125.16 12.992 A 3.609 3.609 0 0 0 125.947 13.924 A 3.289 3.289 0 0 0 126.56 14.328 A 4.086 4.086 0 0 0 128.384 14.768 A 4.733 4.733 0 0 0 128.448 14.768 A 4.766 4.766 0 0 0 129.614 14.632 A 3.604 3.604 0 0 0 130.896 14.032 A 3.006 3.006 0 0 0 132.093 12.036 A 3.91 3.91 0 0 0 132.096 12.016 Z M 55.52 8.944 L 55.52 3.104 L 55.824 3.104 L 55.824 14.944 L 55.52 14.944 L 55.52 12.288 Q 55.168 13.504 54.136 14.28 A 3.83 3.83 0 0 1 52.374 15.001 A 5.083 5.083 0 0 1 51.616 15.056 A 4.83 4.83 0 0 1 50.35 14.896 A 4.074 4.074 0 0 1 49.424 14.52 Q 48.464 13.984 47.936 12.984 A 4.457 4.457 0 0 1 47.495 11.67 A 6.005 6.005 0 0 1 47.408 10.624 A 5.906 5.906 0 0 1 47.516 9.465 A 4.408 4.408 0 0 1 47.936 8.264 Q 48.464 7.264 49.424 6.728 A 4.233 4.233 0 0 1 51.053 6.221 A 5.26 5.26 0 0 1 51.616 6.192 A 4.741 4.741 0 0 1 52.851 6.346 A 3.727 3.727 0 0 1 54.136 6.968 Q 55.168 7.744 55.52 8.944 Z M 142.448 8.944 L 142.448 3.104 L 142.752 3.104 L 142.752 14.944 L 142.448 14.944 L 142.448 12.288 Q 142.096 13.504 141.064 14.28 A 3.83 3.83 0 0 1 139.302 15.001 A 5.083 5.083 0 0 1 138.544 15.056 A 4.83 4.83 0 0 1 137.278 14.896 A 4.074 4.074 0 0 1 136.352 14.52 Q 135.392 13.984 134.864 12.984 A 4.457 4.457 0 0 1 134.423 11.67 A 6.005 6.005 0 0 1 134.336 10.624 A 5.906 5.906 0 0 1 134.444 9.465 A 4.408 4.408 0 0 1 134.864 8.264 Q 135.392 7.264 136.352 6.728 A 4.233 4.233 0 0 1 137.981 6.221 A 5.26 5.26 0 0 1 138.544 6.192 A 4.741 4.741 0 0 1 139.779 6.346 A 3.727 3.727 0 0 1 141.064 6.968 Q 142.096 7.744 142.448 8.944 Z M 66 0 L 66.368 0 L 66.368 0.048 Q 64.784 1.712 63.944 4.008 A 14.007 14.007 0 0 0 63.125 8.134 A 16.282 16.282 0 0 0 63.104 8.96 A 14.822 14.822 0 0 0 63.538 12.592 A 13.275 13.275 0 0 0 63.944 13.912 A 11.482 11.482 0 0 0 65.8 17.226 A 10.787 10.787 0 0 0 66.368 17.872 L 66.368 17.92 L 66 17.92 A 10.158 10.158 0 0 1 64.485 15.849 A 13.353 13.353 0 0 1 63.672 14.104 A 13.345 13.345 0 0 1 62.875 10.721 A 16.591 16.591 0 0 1 62.784 8.96 Q 62.784 6.128 63.672 3.816 A 12.989 12.989 0 0 1 64.689 1.721 A 9.95 9.95 0 0 1 66 0 Z M 145.344 17.92 L 144.976 17.92 L 144.976 17.872 Q 146.56 16.208 147.4 13.912 A 14.007 14.007 0 0 0 148.219 9.786 A 16.282 16.282 0 0 0 148.24 8.96 A 14.822 14.822 0 0 0 147.806 5.328 A 13.275 13.275 0 0 0 147.4 4.008 A 11.482 11.482 0 0 0 145.544 0.694 A 10.787 10.787 0 0 0 144.976 0.048 L 144.976 0 L 145.344 0 A 10.158 10.158 0 0 1 146.859 2.071 A 13.353 13.353 0 0 1 147.672 3.816 A 13.345 13.345 0 0 1 148.469 7.199 A 16.591 16.591 0 0 1 148.56 8.96 Q 148.56 11.792 147.672 14.104 A 12.989 12.989 0 0 1 146.655 16.199 A 9.95 9.95 0 0 1 145.344 17.92 Z M 84.88 8.944 L 84.88 6.304 L 85.184 6.304 L 85.184 14.944 L 84.88 14.944 L 84.88 12.304 Q 84.528 13.504 83.496 14.28 A 3.83 3.83 0 0 1 81.734 15.001 A 5.083 5.083 0 0 1 80.976 15.056 A 4.83 4.83 0 0 1 79.71 14.896 A 4.074 4.074 0 0 1 78.784 14.52 Q 77.824 13.984 77.296 12.984 A 4.457 4.457 0 0 1 76.855 11.67 A 6.005 6.005 0 0 1 76.768 10.624 A 5.906 5.906 0 0 1 76.876 9.465 A 4.408 4.408 0 0 1 77.296 8.264 Q 77.824 7.264 78.784 6.728 A 4.233 4.233 0 0 1 80.413 6.221 A 5.26 5.26 0 0 1 80.976 6.192 A 4.741 4.741 0 0 1 82.211 6.346 A 3.727 3.727 0 0 1 83.496 6.968 Q 84.528 7.744 84.88 8.944 Z M 116.256 8.944 L 116.256 6.304 L 116.56 6.304 L 116.56 14.944 L 116.256 14.944 L 116.256 12.304 Q 115.904 13.504 114.872 14.28 A 3.83 3.83 0 0 1 113.11 15.001 A 5.083 5.083 0 0 1 112.352 15.056 A 4.83 4.83 0 0 1 111.086 14.896 A 4.074 4.074 0 0 1 110.16 14.52 Q 109.2 13.984 108.672 12.984 A 4.457 4.457 0 0 1 108.231 11.67 A 6.005 6.005 0 0 1 108.144 10.624 A 5.906 5.906 0 0 1 108.252 9.465 A 4.408 4.408 0 0 1 108.672 8.264 Q 109.2 7.264 110.16 6.728 A 4.233 4.233 0 0 1 111.789 6.221 A 5.26 5.26 0 0 1 112.352 6.192 A 4.741 4.741 0 0 1 113.587 6.346 A 3.727 3.727 0 0 1 114.872 6.968 Q 115.904 7.744 116.256 8.944 Z M 2.96 14.944 L 0 14.944 L 0 3.68 L 2.96 3.68 A 9.235 9.235 0 0 1 4.644 3.824 Q 5.602 4.002 6.352 4.4 A 4.558 4.558 0 0 1 7.392 5.152 Q 8.858 6.572 8.91 9.124 A 9.283 9.283 0 0 1 8.912 9.312 A 7.633 7.633 0 0 1 8.74 10.981 Q 8.401 12.495 7.392 13.472 Q 5.872 14.944 2.96 14.944 Z M 91.312 6.624 L 88.592 6.624 L 88.592 12.672 A 5.629 5.629 0 0 0 88.608 13.105 Q 88.64 13.529 88.743 13.808 A 1.428 1.428 0 0 0 88.768 13.872 A 1.167 1.167 0 0 0 88.979 14.208 A 1.02 1.02 0 0 0 89.328 14.456 A 1.662 1.662 0 0 0 89.628 14.552 Q 89.938 14.622 90.371 14.624 A 5.564 5.564 0 0 0 90.4 14.624 L 91.312 14.624 L 91.312 14.944 L 90.368 14.944 A 3.864 3.864 0 0 1 89.795 14.905 Q 89.507 14.861 89.278 14.77 A 1.432 1.432 0 0 1 88.76 14.432 A 1.443 1.443 0 0 1 88.472 13.969 Q 88.299 13.54 88.276 12.885 A 5.903 5.903 0 0 1 88.272 12.672 L 88.272 6.624 L 86.864 6.624 L 86.864 6.304 L 88.272 6.304 L 88.272 4.096 L 88.592 4.096 L 88.592 6.304 L 91.312 6.304 L 91.312 6.624 Z M 122.688 6.624 L 119.968 6.624 L 119.968 12.672 A 5.629 5.629 0 0 0 119.984 13.105 Q 120.016 13.529 120.119 13.808 A 1.428 1.428 0 0 0 120.144 13.872 A 1.167 1.167 0 0 0 120.355 14.208 A 1.02 1.02 0 0 0 120.704 14.456 A 1.662 1.662 0 0 0 121.004 14.552 Q 121.314 14.622 121.747 14.624 A 5.564 5.564 0 0 0 121.776 14.624 L 122.688 14.624 L 122.688 14.944 L 121.744 14.944 A 3.864 3.864 0 0 1 121.171 14.905 Q 120.883 14.861 120.654 14.77 A 1.432 1.432 0 0 1 120.136 14.432 A 1.443 1.443 0 0 1 119.848 13.969 Q 119.675 13.54 119.652 12.885 A 5.903 5.903 0 0 1 119.648 12.672 L 119.648 6.624 L 118.24 6.624 L 118.24 6.304 L 119.648 6.304 L 119.648 4.096 L 119.968 4.096 L 119.968 6.304 L 122.688 6.304 L 122.688 6.624 Z M 2.96 3.968 L 0.32 3.968 L 0.32 14.656 L 2.96 14.656 Q 5.744 14.656 7.168 13.248 A 4.612 4.612 0 0 0 8.392 11.051 Q 8.578 10.316 8.591 9.445 A 8.82 8.82 0 0 0 8.592 9.312 Q 8.592 7.108 7.51 5.755 A 4.392 4.392 0 0 0 7.168 5.376 A 4.516 4.516 0 0 0 5.34 4.299 Q 4.632 4.071 3.772 4 A 9.856 9.856 0 0 0 2.96 3.968 Z M 34.499 14.857 A 4.615 4.615 0 0 0 35.872 15.056 A 5.136 5.136 0 0 0 36.241 15.043 A 4.253 4.253 0 0 0 38.032 14.52 Q 38.992 13.984 39.536 12.984 A 4.316 4.316 0 0 0 39.964 11.801 A 5.722 5.722 0 0 0 40.08 10.624 A 5.894 5.894 0 0 0 40.003 9.65 A 4.397 4.397 0 0 0 39.536 8.264 Q 38.992 7.264 38.032 6.728 A 4.098 4.098 0 0 0 37.245 6.391 A 4.615 4.615 0 0 0 35.872 6.192 A 5.136 5.136 0 0 0 35.503 6.205 A 4.253 4.253 0 0 0 33.712 6.728 Q 32.752 7.264 32.2 8.264 A 4.276 4.276 0 0 0 31.765 9.447 A 5.642 5.642 0 0 0 31.648 10.624 Q 31.648 11.984 32.2 12.984 Q 32.752 13.984 33.712 14.52 A 4.098 4.098 0 0 0 34.499 14.857 Z M 46.128 6.112 L 46.128 6.464 L 45.984 6.464 Q 44.624 6.464 43.672 7.256 A 2.43 2.43 0 0 0 42.936 8.35 Q 42.794 8.757 42.746 9.257 A 5.686 5.686 0 0 0 42.72 9.808 L 42.72 14.944 L 42.4 14.944 L 42.4 6.304 L 42.72 6.304 L 42.72 8.4 A 2.865 2.865 0 0 1 43.354 7.097 Q 44.228 6.112 46.128 6.112 Z M 106.864 6.112 L 106.864 6.464 L 106.72 6.464 Q 105.36 6.464 104.408 7.256 A 2.43 2.43 0 0 0 103.672 8.35 Q 103.53 8.757 103.482 9.257 A 5.686 5.686 0 0 0 103.456 9.808 L 103.456 14.944 L 103.136 14.944 L 103.136 6.304 L 103.456 6.304 L 103.456 8.4 A 2.865 2.865 0 0 1 104.09 7.097 Q 104.964 6.112 106.864 6.112 Z M 55.52 10.624 Q 55.52 9.392 55.016 8.456 Q 54.512 7.52 53.624 7 A 3.821 3.821 0 0 0 51.909 6.489 A 4.636 4.636 0 0 0 51.616 6.48 A 4.757 4.757 0 0 0 50.575 6.589 A 3.655 3.655 0 0 0 49.56 6.976 Q 48.688 7.472 48.208 8.408 A 4.248 4.248 0 0 0 47.81 9.623 A 5.815 5.815 0 0 0 47.728 10.624 Q 47.728 11.904 48.208 12.84 Q 48.688 13.776 49.56 14.272 A 3.742 3.742 0 0 0 50.822 14.707 A 4.953 4.953 0 0 0 51.616 14.768 A 4.14 4.14 0 0 0 52.864 14.585 A 3.686 3.686 0 0 0 53.624 14.248 Q 54.512 13.728 55.016 12.792 A 4.187 4.187 0 0 0 55.468 11.383 A 5.397 5.397 0 0 0 55.52 10.624 Z M 84.88 10.624 Q 84.88 9.392 84.376 8.456 Q 83.872 7.52 82.984 7 A 3.821 3.821 0 0 0 81.269 6.489 A 4.636 4.636 0 0 0 80.976 6.48 A 4.757 4.757 0 0 0 79.935 6.589 A 3.655 3.655 0 0 0 78.92 6.976 Q 78.048 7.472 77.568 8.408 A 4.248 4.248 0 0 0 77.17 9.623 A 5.815 5.815 0 0 0 77.088 10.624 Q 77.088 11.904 77.568 12.84 Q 78.048 13.776 78.92 14.272 A 3.742 3.742 0 0 0 80.182 14.707 A 4.953 4.953 0 0 0 80.976 14.768 A 4.14 4.14 0 0 0 82.224 14.585 A 3.686 3.686 0 0 0 82.984 14.248 Q 83.872 13.728 84.376 12.792 A 4.187 4.187 0 0 0 84.828 11.383 A 5.397 5.397 0 0 0 84.88 10.624 Z M 116.256 10.624 Q 116.256 9.392 115.752 8.456 Q 115.248 7.52 114.36 7 A 3.821 3.821 0 0 0 112.645 6.489 A 4.636 4.636 0 0 0 112.352 6.48 A 4.757 4.757 0 0 0 111.311 6.589 A 3.655 3.655 0 0 0 110.296 6.976 Q 109.424 7.472 108.944 8.408 A 4.248 4.248 0 0 0 108.546 9.623 A 5.815 5.815 0 0 0 108.464 10.624 Q 108.464 11.904 108.944 12.84 Q 109.424 13.776 110.296 14.272 A 3.742 3.742 0 0 0 111.558 14.707 A 4.953 4.953 0 0 0 112.352 14.768 A 4.14 4.14 0 0 0 113.6 14.585 A 3.686 3.686 0 0 0 114.36 14.248 Q 115.248 13.728 115.752 12.792 A 4.187 4.187 0 0 0 116.204 11.383 A 5.397 5.397 0 0 0 116.256 10.624 Z M 142.448 10.624 Q 142.448 9.392 141.944 8.456 Q 141.44 7.52 140.552 7 A 3.821 3.821 0 0 0 138.837 6.489 A 4.636 4.636 0 0 0 138.544 6.48 A 4.757 4.757 0 0 0 137.503 6.589 A 3.655 3.655 0 0 0 136.488 6.976 Q 135.616 7.472 135.136 8.408 A 4.248 4.248 0 0 0 134.738 9.623 A 5.815 5.815 0 0 0 134.656 10.624 Q 134.656 11.904 135.136 12.84 Q 135.616 13.776 136.488 14.272 A 3.742 3.742 0 0 0 137.75 14.707 A 4.953 4.953 0 0 0 138.544 14.768 A 4.14 4.14 0 0 0 139.792 14.585 A 3.686 3.686 0 0 0 140.552 14.248 Q 141.44 13.728 141.944 12.792 A 4.187 4.187 0 0 0 142.396 11.383 A 5.397 5.397 0 0 0 142.448 10.624 Z M 35.872 14.768 Q 36.912 14.768 37.792 14.312 A 3.447 3.447 0 0 0 39.075 13.153 A 4.207 4.207 0 0 0 39.216 12.928 Q 39.726 12.058 39.758 10.794 A 6.753 6.753 0 0 0 39.76 10.624 Q 39.76 9.248 39.216 8.32 A 3.729 3.729 0 0 0 38.454 7.387 A 3.339 3.339 0 0 0 37.792 6.936 Q 36.912 6.48 35.872 6.48 Q 34.832 6.48 33.944 6.936 Q 33.056 7.392 32.512 8.328 A 3.858 3.858 0 0 0 32.08 9.479 Q 31.968 10.008 31.968 10.624 A 5.658 5.658 0 0 0 32.058 11.659 Q 32.189 12.364 32.512 12.92 A 3.704 3.704 0 0 0 33.268 13.852 A 3.318 3.318 0 0 0 33.944 14.312 Q 34.832 14.768 35.872 14.768 Z M 124.608 10.48 L 132.128 10.48 A 5.919 5.919 0 0 0 132.139 10.126 Q 132.139 9.65 132.057 9.235 A 3.277 3.277 0 0 0 131.704 8.256 A 3.306 3.306 0 0 0 130.819 7.226 A 3.189 3.189 0 0 0 130.328 6.92 Q 129.456 6.48 128.448 6.48 Q 127.424 6.48 126.56 6.92 A 3.388 3.388 0 0 0 125.263 8.092 A 4.107 4.107 0 0 0 125.16 8.256 A 3.695 3.695 0 0 0 124.737 9.33 Q 124.631 9.792 124.612 10.326 A 6.532 6.532 0 0 0 124.608 10.48 Z M 11.232 6.304 L 11.552 6.304 L 11.552 14.944 L 11.232 14.944 L 11.232 6.304 Z M 11.225 4.064 A 0.426 0.426 0 0 0 11.392 4.096 A 0.514 0.514 0 0 0 11.397 4.096 A 0.401 0.401 0 0 0 11.688 3.976 A 0.394 0.394 0 0 0 11.788 3.808 A 0.5 0.5 0 0 0 11.808 3.664 A 0.555 0.555 0 0 0 11.804 3.595 A 0.404 0.404 0 0 0 11.688 3.352 A 0.403 0.403 0 0 0 11.559 3.264 A 0.426 0.426 0 0 0 11.392 3.232 A 0.514 0.514 0 0 0 11.387 3.232 A 0.401 0.401 0 0 0 11.096 3.352 A 0.394 0.394 0 0 0 10.996 3.52 A 0.5 0.5 0 0 0 10.976 3.664 A 0.555 0.555 0 0 0 10.98 3.733 A 0.404 0.404 0 0 0 11.096 3.976 A 0.403 0.403 0 0 0 11.225 4.064 Z" vector-effect="non-scaling-stroke"/></g></svg>
