<svg xmlns="http://www.w3.org/2000/svg" viewBox="0 0 36 36"><defs><filter id="white-glow" x="-5000%" y="-5000%" width="10000%" height="10000%"><feFlood result="flood" flood-color="#ffffff" flood-opacity="1"></feFlood><feComposite in="flood" result="mask" in2="SourceGraphic" operator="in"></feComposite><feMorphology in="mask" result="dilated" operator="dilate" radius="2"></feMorphology><feGaussianBlur in="dilated" result="blurred" stdDeviation="5"></feGaussianBlur><feMerge><feMergeNode in="blurred"></feMergeNode><feMergeNode in="SourceGraphic"></feMergeNode></feMerge></filter></defs><path filter="url(#white-glow)" fill="#EEE" d="M32 5H4C1.791 5 0 6.791 0 9v18c0 2.209 1.791 4 4 4h28c2.209 0 4-1.791 4-4V9c0-2.209-1.791-4-4-4z"/><path filter="url(#white-glow)" d="M13 18S0 8.586 0 8.895v18.21C0 27.414 13 18 13 18zm5 3S3.697 31 4.07 31h27.859C32.303 31 18 21 18 21zm5-3s13 9.414 13 9.105V8.895C36 8.586 23 18 23 18zm-5-3S3.697 5 4.07 5h27.859C32.303 5 18 15 18 15z" fill="#0065BD"/></svg>